<?xml version="1.0" encoding="utf-8"?>
<!-- Generator: Adobe Illustrator 24.0.1, SVG Export Plug-In . SVG Version: 6.00 Build 0)  -->
<svg version="1.1" id="Camada_1" xmlns="http://www.w3.org/2000/svg" xmlns:xlink="http://www.w3.org/1999/xlink" x="0px" y="0px"
	 viewBox="0 0 1366 400" style="enable-background:new 0 0 1366 400;" xml:space="preserve">
<style type="text/css">
	.st0{fill:url(#SVGID_1_);}
	.st1{fill:url(#SVGID_2_);}
	.st2{fill:url(#SVGID_3_);}
	.st3{fill:url(#SVGID_4_);}
	.st4{fill:url(#SVGID_5_);}
	.st5{fill:url(#SVGID_6_);}
	.st6{fill:url(#SVGID_7_);}
	.st7{fill:url(#SVGID_8_);}
	.st8{fill:url(#SVGID_9_);}
	.st9{fill:url(#SVGID_10_);}
	.st10{fill:url(#SVGID_11_);}
	.st11{fill:url(#SVGID_12_);}
	.st12{fill:url(#SVGID_13_);}
	.st13{fill:url(#SVGID_14_);}
	.st14{fill:url(#SVGID_15_);}
	.st15{fill:url(#SVGID_16_);}
	.st16{fill:url(#SVGID_17_);}
	.st17{fill:url(#SVGID_18_);}
	.st18{fill:url(#SVGID_19_);}
</style>
<g>
	
		<linearGradient id="SVGID_1_" gradientUnits="userSpaceOnUse" x1="517.0051" y1="215.292" x2="617.4311" y2="215.292" gradientTransform="matrix(1 0 0 -1 0 400)">
		<stop  offset="0" style="stop-color:#EECE96"/>
		<stop  offset="0.5056" style="stop-color:#D2AE6D"/>
		<stop  offset="1" style="stop-color:#97763B"/>
	</linearGradient>
	<path class="st0" d="M517,236.9V132.5h61.7c10.3,0,18.2,2.1,23.2,6.4c5.3,4.3,7.8,10.7,7.8,19.6c0,4.3-0.7,7.8-2.5,11.1
		c-1.8,3.2-3.9,6.1-7.1,7.8c5.7,3.2,9.6,7.1,12.5,11.8s4.3,10,4.3,16c0,9.6-3.2,17.5-9.6,22.8c-6.4,5.7-15,8.6-25.7,8.6H517V236.9z
		 M529.8,173.8h49.9c5.3,0,9.6-1.1,12.5-3.6c2.9-2.5,4.3-6.1,4.3-10.7c0-5-1.4-8.6-4.3-11.1c-2.9-2.5-7.1-3.6-12.8-3.6h-49.9v28.9
		H529.8z M529.8,224.8h54.6c6.1,0,10.7-1.8,13.9-5.3s5-8.2,5-14.3c0-6.1-1.8-10.7-5-14.3c-3.6-3.6-8.2-5.3-13.9-5.3h-54.6V224.8z"/>
	
		<linearGradient id="SVGID_2_" gradientUnits="userSpaceOnUse" x1="626.1157" y1="203.5252" x2="716.6847" y2="203.5252" gradientTransform="matrix(1 0 0 -1 0 400)">
		<stop  offset="0" style="stop-color:#EECE96"/>
		<stop  offset="0.5056" style="stop-color:#D2AE6D"/>
		<stop  offset="1" style="stop-color:#97763B"/>
	</linearGradient>
	<path class="st1" d="M626.1,236.9l41-80.9h7.8l41.7,80.9h-13.5l-10.3-20.7H650l-10.3,20.7H626.1z M655.4,205.6h31.7l-15.7-31
		L655.4,205.6z"/>
	
		<linearGradient id="SVGID_3_" gradientUnits="userSpaceOnUse" x1="728.5717" y1="203.5252" x2="801.3121" y2="203.5252" gradientTransform="matrix(1 0 0 -1 0 400)">
		<stop  offset="0" style="stop-color:#EECE96"/>
		<stop  offset="0.5056" style="stop-color:#D2AE6D"/>
		<stop  offset="1" style="stop-color:#97763B"/>
	</linearGradient>
	<path class="st2" d="M728.5,236.9V156h12.8v69.2h59.9v11.8L728.5,236.9L728.5,236.9z"/>
	
		<linearGradient id="SVGID_4_" gradientUnits="userSpaceOnUse" x1="800.2231" y1="203.5252" x2="890.7104" y2="203.5252" gradientTransform="matrix(1 0 0 -1 0 400)">
		<stop  offset="0" style="stop-color:#EECE96"/>
		<stop  offset="0.5056" style="stop-color:#D2AE6D"/>
		<stop  offset="1" style="stop-color:#97763B"/>
	</linearGradient>
	<path class="st3" d="M800.1,236.9l41-80.9h7.8l41.4,80.9h-13.5l-10.3-20.7h-42.8l-10.3,20.7H800.1z M829.4,205.6h31.7l-15.7-31
		L829.4,205.6z"/>
	
		<linearGradient id="SVGID_5_" gradientUnits="userSpaceOnUse" x1="902.9209" y1="203.5252" x2="973.3418" y2="203.5252" gradientTransform="matrix(1 0 0 -1 0 400)">
		<stop  offset="0" style="stop-color:#EECE96"/>
		<stop  offset="0.5056" style="stop-color:#D2AE6D"/>
		<stop  offset="1" style="stop-color:#97763B"/>
	</linearGradient>
	<path class="st4" d="M902.8,236.9V156h6.8l51.3,56.7V156h12.5v80.9h-6.8l-51.3-56.7v56.7H902.8z"/>
	
		<linearGradient id="SVGID_6_" gradientUnits="userSpaceOnUse" x1="1001.1696" y1="203.5251" x2="1081.0415" y2="203.5251" gradientTransform="matrix(1 0 0 -1 0 400)">
		<stop  offset="0" style="stop-color:#EECE96"/>
		<stop  offset="0.5056" style="stop-color:#D2AE6D"/>
		<stop  offset="1" style="stop-color:#97763B"/>
	</linearGradient>
	<path class="st5" d="M1036.9,156c13.2,0,23.9,3.9,31.7,11.4c8.2,7.5,12.1,17.5,12.1,29.2c0,12.1-3.9,21.8-11.8,29.2
		c-7.8,7.1-18.5,11.1-32.1,11.1h-36V156L1036.9,156L1036.9,156z M1037.2,167.8h-23.5v57.4h23.5c9.6,0,17.1-2.5,22.5-7.8
		c5.3-5,8.2-12.1,8.2-21c0-8.6-2.9-15.3-8.6-20.7C1054,170.6,1046.5,167.8,1037.2,167.8z"/>
	
		<linearGradient id="SVGID_7_" gradientUnits="userSpaceOnUse" x1="1101.217" y1="203.1686" x2="1185.7242" y2="203.1686" gradientTransform="matrix(1 0 0 -1 0 400)">
		<stop  offset="0" style="stop-color:#EECE96"/>
		<stop  offset="0.5056" style="stop-color:#D2AE6D"/>
		<stop  offset="1" style="stop-color:#97763B"/>
	</linearGradient>
	<path class="st6" d="M1113.9,201.6v35.3h-12.8v-80.6h55.6c8.2,0,14.6,2.1,19.3,6.1c4.6,3.9,7.1,9.6,7.1,16.4c0,5.7-1.8,10.7-5.7,15
		c-3.6,4.3-8.6,6.8-14.3,7.8l22.5,35.7H1172l-22.8-35.3h-35.3V201.6z M1113.9,189.9h43.1c4.3,0,7.8-1.1,10-2.9s3.6-4.6,3.6-8.2
		c0-3.6-1.1-6.1-3.6-8.2c-2.1-1.8-5.7-2.9-10-2.9h-43.1V189.9z"/>
	
		<linearGradient id="SVGID_8_" gradientUnits="userSpaceOnUse" x1="1187.2557" y1="203.5252" x2="1277.7434" y2="203.5252" gradientTransform="matrix(1 0 0 -1 0 400)">
		<stop  offset="0" style="stop-color:#EECE96"/>
		<stop  offset="0.5056" style="stop-color:#D2AE6D"/>
		<stop  offset="1" style="stop-color:#97763B"/>
	</linearGradient>
	<path class="st7" d="M1187.4,236.9l41-80.9h7.8l41.4,80.9H1264l-10.3-20.7h-42.8l-10.3,20.7H1187.4z M1216.6,205.6h31.7l-15.7-31
		L1216.6,205.6z"/>
	
		<linearGradient id="SVGID_9_" gradientUnits="userSpaceOnUse" x1="1286.4846" y1="202.099" x2="1366.3707" y2="202.099" gradientTransform="matrix(1 0 0 -1 0 400)">
		<stop  offset="0" style="stop-color:#EECE96"/>
		<stop  offset="0.5056" style="stop-color:#D2AE6D"/>
		<stop  offset="1" style="stop-color:#97763B"/>
	</linearGradient>
	<path class="st8" d="M1286.5,156.4h12.8v51.7c0,7.8,1.8,12.8,5.3,15.7c3.6,2.9,11.1,3.9,21.8,3.9c11.1,0,18.2-1.4,21.8-3.9
		c3.6-2.9,5.3-7.8,5.3-15.7v-51.7h12.5v54.9c0,10-3.2,17.1-9.3,21.4c-6.4,4.3-16.4,6.8-30.7,6.8c-14.3,0-24.2-2.1-30.3-6.4
		c-6.1-4.3-9.3-11.4-9.3-21.8L1286.5,156.4L1286.5,156.4z"/>
</g>
<g>
	
		<linearGradient id="SVGID_10_" gradientUnits="userSpaceOnUse" x1="23.7885" y1="199.1946" x2="202.1519" y2="199.1946" gradientTransform="matrix(1 0 0 -1 0 400)">
		<stop  offset="0" style="stop-color:#EECE96"/>
		<stop  offset="0.5056" style="stop-color:#D2AE6D"/>
		<stop  offset="1" style="stop-color:#97763B"/>
	</linearGradient>
	<path class="st9" d="M179,57.1c-3.1-4.8-4.6-10.1-4.4-15.3l-150.7,316c-0.3,0.6,0,1.4,0.6,1.8c0.6,0.3,1.5,0.2,1.8-0.5L202.2,92.1
		L179,57.1z"/>
	
		<linearGradient id="SVGID_11_" gradientUnits="userSpaceOnUse" x1="172.1126" y1="200.2674" x2="257.2564" y2="200.2674" gradientTransform="matrix(1 0 0 -1 0 400)">
		<stop  offset="0" style="stop-color:#EECE96"/>
		<stop  offset="0.5056" style="stop-color:#D2AE6D"/>
		<stop  offset="1" style="stop-color:#97763B"/>
	</linearGradient>
	<path class="st10" d="M190.4,154v91.5c-5.1,0.2-11,0.5-18.2,1.1V245c7.4-2,11-9.8,11-23.4v-45.2c0-12.1-3.7-19.3-11-21.8v-1.5
		C178.2,153.5,184.2,154,190.4,154z M196.8,245.5V154l14.9-1.1c7.4,0,13.2,2.3,17.5,6.9c4.3,4.6,6.4,10.6,6.4,17.6
		c0,8.9-3.8,15.3-11.6,19.3c12.6,2.9,18.7,11,18.7,24.4c0,6.7-2,12.7-6.1,17.8c-4.1,5.1-10.9,7.7-20.1,7.7c-3.4,0-7.1-0.2-11-0.6
		C201.7,245.6,198.9,245.5,196.8,245.5z M204,177.7v17.5h6.7c5.5,0,9.8-1.5,12.9-4.4c3.1-3.1,4.4-7.4,4.4-13
		c0-5.8-1.7-10.3-4.9-13.3c-3.2-3.1-7.1-4.4-11.6-4.4c-2.5,0-4.4,0.6-6,1.8C204.5,164.7,204,170.1,204,177.7z M212.6,201.3H204V217
		c0,10.9,1.2,17.8,3.5,20.7c2,1.5,5.1,2.3,9,2.3c6.7,0,11.6-2,14.6-6c2.8-4,4.1-8.6,4.1-13.8c0-4.3-0.9-7.8-2.8-10.9
		s-4.1-5.2-6.9-6.4C222.7,202,218.4,201.3,212.6,201.3z M236.8,194c3.5-4.6,5.4-10.1,5.4-16.6c0-5.1-0.9-9.5-2.9-13.5
		c-2-4.1-4.4-6.9-7.1-8.3c5.7,1.2,10.1,3.7,13.2,7.4c3.1,3.8,4.6,8,4.6,12.6c0,4-1.2,7.8-3.8,11.5
		C243.5,190.5,240.5,192.8,236.8,194z M241.2,243c5.4-5.7,8-12.7,8-21.5c0-9.3-2.8-17-8.3-22.7c11,4,16.6,11.3,16.6,22.1
		c0,5.2-1.5,10-4.6,14.1C249.7,239,245.8,241.8,241.2,243z"/>
	
		<linearGradient id="SVGID_12_" gradientUnits="userSpaceOnUse" x1="198.7439" y1="362.4947" x2="221.3011" y2="362.4947" gradientTransform="matrix(1 0 0 -1 0 400)">
		<stop  offset="0" style="stop-color:#EECE96"/>
		<stop  offset="0.5056" style="stop-color:#D2AE6D"/>
		<stop  offset="1" style="stop-color:#97763B"/>
	</linearGradient>
	<circle class="st11" cx="210" cy="37.5" r="11.3"/>
	
		<linearGradient id="SVGID_13_" gradientUnits="userSpaceOnUse" x1="181.8839" y1="216.9621" x2="393.4222" y2="216.9621" gradientTransform="matrix(1 0 0 -1 0 400)">
		<stop  offset="0" style="stop-color:#EECE96"/>
		<stop  offset="0.5056" style="stop-color:#D2AE6D"/>
		<stop  offset="1" style="stop-color:#97763B"/>
	</linearGradient>
	<path class="st12" d="M393.3,356.1l-160.5-333c-6.7-13.9-23.9-19.3-37.4-11.6l0,0c-13.5,7.7-17.6,25.3-9,38.2L391,357.5
		c0.5,0.6,1.2,0.8,1.8,0.5C393.4,357.5,393.6,356.7,393.3,356.1z M210,57.4c-11,0-19.9-8.9-19.9-19.9s8.9-19.9,19.9-19.9
		s19.9,8.9,19.9,19.9S221,57.4,210,57.4z"/>
	
		<linearGradient id="SVGID_14_" gradientUnits="userSpaceOnUse" x1="323.0752" y1="197.662" x2="393.4222" y2="197.662" gradientTransform="matrix(1 0 0 -1 0 400)">
		<stop  offset="0" style="stop-color:#EECE96"/>
		<stop  offset="0.5056" style="stop-color:#D2AE6D"/>
		<stop  offset="1" style="stop-color:#97763B"/>
	</linearGradient>
	<polygon class="st13" points="343.2,227.5 393.4,177.1 331.8,177.1 323.1,186 	"/>
	
		<linearGradient id="SVGID_15_" gradientUnits="userSpaceOnUse" x1="347.1372" y1="189.6924" x2="417.0661" y2="189.6924" gradientTransform="matrix(1 0 0 -1 0 400)">
		<stop  offset="0" style="stop-color:#EECE96"/>
		<stop  offset="0.5056" style="stop-color:#D2AE6D"/>
		<stop  offset="1" style="stop-color:#97763B"/>
	</linearGradient>
	<polygon class="st14" points="350.8,243.5 417.2,177.1 406.1,177.1 347.1,236.1 	"/>
	
		<linearGradient id="SVGID_16_" gradientUnits="userSpaceOnUse" x1="0" y1="189.6158" x2="70.0405" y2="189.6158" gradientTransform="matrix(1 0 0 -1 0 400)">
		<stop  offset="0" style="stop-color:#EECE96"/>
		<stop  offset="0.5056" style="stop-color:#D2AE6D"/>
		<stop  offset="1" style="stop-color:#97763B"/>
	</linearGradient>
	<polygon class="st15" points="70,236.1 11,177.1 0,177.1 66.5,243.6 	"/>
	
		<linearGradient id="SVGID_17_" gradientUnits="userSpaceOnUse" x1="23.7555" y1="197.662" x2="94.1025" y2="197.662" gradientTransform="matrix(1 0 0 -1 0 400)">
		<stop  offset="0" style="stop-color:#EECE96"/>
		<stop  offset="0.5056" style="stop-color:#D2AE6D"/>
		<stop  offset="1" style="stop-color:#97763B"/>
	</linearGradient>
	<polygon class="st16" points="94.1,185.9 85.4,177.1 23.8,177.1 74.2,227.5 	"/>
	
		<linearGradient id="SVGID_18_" gradientUnits="userSpaceOnUse" x1="96.2482" y1="74.0566" x2="321.5425" y2="74.0566" gradientTransform="matrix(1 0 0 -1 0 400)">
		<stop  offset="0" style="stop-color:#EECE96"/>
		<stop  offset="0.5056" style="stop-color:#D2AE6D"/>
		<stop  offset="1" style="stop-color:#97763B"/>
	</linearGradient>
	<polygon class="st17" points="317.1,266.2 208.6,374.7 100.7,266.8 96.2,273.5 208.6,385.7 321.5,272.9 	"/>
	
		<linearGradient id="SVGID_19_" gradientUnits="userSpaceOnUse" x1="105.7504" y1="108.1573" x2="312.0403" y2="108.1573" gradientTransform="matrix(1 0 0 -1 0 400)">
		<stop  offset="0" style="stop-color:#EECE96"/>
		<stop  offset="0.5056" style="stop-color:#D2AE6D"/>
		<stop  offset="1" style="stop-color:#97763B"/>
	</linearGradient>
	<polygon class="st18" points="287.4,221.6 208.6,300.5 130.3,222 105.8,259.1 208.6,362.1 312,258.7 	"/>
</g>
</svg>
